<svg xmlns="http://www.w3.org/2000/svg" viewBox="0 0 24 24" fill="none" stroke="currentColor" stroke-width="1.5" stroke-linecap="round" stroke-linejoin="round">
  
  <circle cx="6" cy="6" r="2"></circle>
  <circle cx="12" cy="5" r="2"></circle>
  <circle cx="18" cy="6" r="2"></circle>
  <path d="M3 14c0-2 1.5-3.5 3-3.5s3 1.5 3 3.5"></path>
  <path d="M9 13c0-2 1.5-3.5 3-3.5s3 1.5 3 3.5"></path>
  <path d="M15 14c0-2 1.5-3.5 3-3.5s3 1.5 3 3.5"></path>
  <path d="M3 19h18"></path>
  <path d="M5 14v5M9 13v6M12 9.5v9.5M15 14v5M19 14v5"></path>
</svg>