<svg xmlns="http://www.w3.org/2000/svg" viewBox="0 0 24 24" fill="none" stroke="currentColor" stroke-width="1.5" stroke-linecap="round" stroke-linejoin="round">
  
  <path d="M12 21V11"></path>
  <path d="M12 11c-2-1-4-1-5-3 2-1 4 0 5 2"></path>
  <path d="M12 11c2-1 4-1 5-3-2-1-4 0-5 2"></path>
  <path d="M12 8c-1.5-1-3-1-4-2.5C9.5 4.5 11 5.5 12 7"></path>
  <path d="M12 8c1.5-1 3-1 4-2.5C14.5 4.5 13 5.5 12 7"></path>
  <path d="M12 5c-1-0.7-2-0.7-2.7-1.7C10.3 2.5 11.3 3 12 4"></path>
  <path d="M12 5c1-0.7 2-0.7 2.7-1.7C13.7 2.5 12.7 3 12 4"></path>
  <path d="M6 21h12"></path>
</svg>